<svg data-v-423bf9ae="" xmlns="http://www.w3.org/2000/svg" viewBox="0 0 372 90" class="iconLeftSlogan"><!----><!----><!----><g data-v-423bf9ae="" id="225f43c4-5cf6-46fd-9876-e5ef334863a8" fill="#000000" transform="matrix(5.154461231118269,0,0,5.154461231118269,94.79442223001627,-18.040615262588254)"><path d="M1.74 3.50L0.29 4.78L0.37 4.93L0.37 4.93Q1.00 4.50 1.10 5.69L1.10 5.69L1.09 10.02L1.09 10.02Q1.09 11.20 1.57 11.92L1.57 11.92L1.57 11.92Q2.04 12.64 3.03 12.71L3.03 12.71L3.03 12.71Q4.02 12.78 4.70 12.30L4.70 12.30L4.70 12.30Q5.39 11.83 5.87 11.17L5.87 11.17L5.87 11.17Q6.35 10.51 6.73 9.52L6.73 9.52L6.73 9.52Q7.11 8.53 7.04 6.97L7.04 6.97L7.04 6.97Q6.97 5.41 6.03 4.46L6.03 4.46L6.03 4.46Q5.09 3.52 4.10 3.50L4.10 3.50L2.32 4.92L2.32 4.92Q2.21 3.93 1.74 3.50L1.74 3.50ZM3.45 4.78L3.45 4.78L3.45 4.78Q4.20 4.49 5.04 5.27L5.04 5.27L5.04 5.27Q5.89 6.05 5.97 7.96L5.97 7.96L5.97 7.96Q6.06 9.87 5.68 10.63L5.68 10.63L5.68 10.63Q5.30 11.38 4.65 11.75L4.65 11.75L4.65 11.75Q4.00 12.11 3.16 11.71L3.16 11.71L3.16 11.71Q2.32 11.31 2.30 9.63L2.30 9.63L2.30 5.56L2.30 5.56Q2.70 5.07 3.45 4.78ZM8.59 6.46L7.38 7.35L7.49 7.52L7.49 7.52Q8.07 7.06 8.08 8.50L8.08 8.50L8.08 8.50Q8.01 11.46 8.10 11.91L8.10 11.91L8.10 11.91Q8.19 12.37 8.82 12.71L8.82 12.71L9.88 11.87L9.80 11.75L9.80 11.75Q9.26 11.96 9.15 11.08L9.15 11.08L9.15 11.08Q9.05 10.19 9.13 8.11L9.13 8.11L9.13 8.11Q10.14 6.60 10.96 8.12L10.96 8.12L11.83 7.42L11.83 7.42Q11.55 6.74 11.09 6.57L11.09 6.57L11.09 6.57Q10.64 6.39 10.20 6.58L10.20 6.58L10.20 6.58Q9.77 6.76 9.06 7.66L9.06 7.66L9.06 7.66Q9.12 6.82 8.59 6.46L8.59 6.46ZM16.83 6.38L15.76 6.95L15.76 6.95Q16.27 7.05 16.19 8.03L16.19 8.03L16.19 11.01L16.19 11.01Q15.52 12.35 14.56 12.13L14.56 12.13L14.56 12.13Q13.60 11.92 13.45 10.98L13.45 10.98L13.45 7.56L13.45 7.56Q13.46 6.67 12.94 6.43L12.94 6.43L12.01 6.97L12.01 6.97Q12.48 7.26 12.43 8.49L12.43 8.49L12.42 11.03L12.42 11.03Q12.50 11.86 13.05 12.35L13.05 12.35L13.05 12.35Q13.60 12.84 14.70 12.71L14.70 12.71L14.70 12.71Q15.81 12.58 16.26 11.81L16.26 11.81L16.26 11.81Q16.30 13.16 16.05 13.84L16.05 13.84L16.05 13.84Q15.80 14.52 14.50 14.25L14.50 14.25L14.50 14.25Q13.19 13.99 12.67 13.22L12.67 13.22L12.02 14.03L12.02 14.03Q13.45 15.42 14.66 15.07L14.66 15.07L14.66 15.07Q15.88 14.71 16.53 14.10L16.53 14.10L16.53 14.10Q17.18 13.49 17.19 12.53L17.19 12.53L17.19 7.94L17.19 7.94Q17.33 6.86 16.83 6.38L16.83 6.38ZM21.97 3.55L21.08 4.31L21.21 4.47L21.21 4.47Q21.70 4.25 21.79 5.58L21.79 5.58L21.75 11.52L21.75 11.52Q21.92 12.75 22.66 12.74L22.66 12.74L23.38 12.00L23.38 12.00Q22.68 11.89 22.77 10.31L22.77 10.31L22.77 7.57L24.34 7.52L25.09 6.73L24.92 6.56L23.51 6.56L22.81 7.18L22.84 4.70L25.00 4.70L26.01 3.78L25.94 3.62L23.58 3.62L22.73 4.43L22.73 4.43Q22.71 3.84 21.97 3.55L21.97 3.55ZM26.89 3.53L25.94 4.05L25.94 4.05Q26.23 4.42 26.22 5.35L26.22 5.35L26.22 5.35Q26.03 11.53 26.14 12.01L26.14 12.01L26.14 12.01Q26.26 12.50 26.82 12.80L26.82 12.80L28.14 11.96L28.01 11.72L28.01 11.72Q27.51 12.04 27.26 11.35L27.26 11.35L27.26 11.35Q27.01 10.66 27.23 4.89L27.23 4.89L27.23 4.89Q27.20 3.89 26.89 3.53L26.89 3.53ZM31.26 6.45L31.26 6.45Q30.11 7.21 29.64 7.77L29.64 7.77L29.64 7.77Q29.16 8.33 28.97 8.89L28.97 8.89L28.97 8.89Q28.78 9.46 28.91 10.32L28.91 10.32L28.91 10.32Q29.03 11.17 29.90 11.96L29.90 11.96L29.90 11.96Q30.77 12.75 31.29 12.75L31.29 12.75L31.29 12.75Q31.81 12.76 32.92 11.73L32.92 11.73L32.92 11.73Q33.35 11.34 33.75 10.82L33.75 10.82L33.75 10.82Q34.14 10.31 34.25 9.74L34.25 9.74L34.25 9.74Q34.36 9.17 34.19 8.50L34.19 8.50L34.19 8.50Q34.02 7.83 33.21 7.04L33.21 7.04L33.21 7.04Q32.40 6.25 31.26 6.45L31.26 6.45ZM30.90 7.26L30.90 7.26L30.90 7.26Q31.68 7.08 32.62 8.24L32.62 8.24L32.62 8.24Q33.56 9.41 33.36 10.23L33.36 10.23L33.36 10.23Q33.16 11.06 32.50 11.56L32.50 11.56L32.50 11.56Q31.85 12.05 31.11 11.45L31.11 11.45L31.11 11.45Q30.37 10.84 29.93 10.15L29.93 10.15L29.93 10.15Q29.50 9.46 29.80 8.45L29.80 8.45L29.80 8.45Q30.11 7.43 30.90 7.26ZM39.60 10.45L39.36 10.17L38.19 11.57L35.77 6.67L35.77 6.67Q35.53 6.38 35.14 6.71L35.14 6.71L34.27 7.37L34.39 7.57L34.39 7.57Q34.67 7.11 35.27 8.15L35.27 8.15L37.52 12.69L37.79 12.69L38.40 11.91L39.60 10.45ZM40.24 7.12L40.24 7.12L40.39 7.24L40.39 7.24Q40.89 6.55 41.75 7.48L41.75 7.48L41.75 7.48Q42.62 8.40 42.33 9.44L42.33 9.44L42.33 9.44Q42.05 10.48 41.13 11.57L41.13 11.57L38.71 6.67L38.71 6.67Q38.47 6.38 38.08 6.71L38.08 6.71L37.21 7.37L37.33 7.57L37.33 7.57Q37.61 7.11 38.21 8.15L38.21 8.15L40.46 12.69L40.73 12.69L41.34 11.91L41.34 11.91Q42.29 10.77 42.99 9.74L42.99 9.74L42.99 9.74Q43.70 8.71 43.21 7.57L43.21 7.57L43.21 7.57Q42.72 6.43 41.84 6.17L41.84 6.17L41.84 6.17Q40.95 5.91 40.24 7.12ZM47.29 6.60L47.29 6.60L47.29 6.60Q46.22 6.43 45.29 7.26L45.29 7.26L45.29 7.26Q44.37 8.09 44.11 9.20L44.11 9.20L44.11 9.20Q43.85 10.31 44.27 11.26L44.27 11.26L44.27 11.26Q44.69 12.22 45.83 12.62L45.83 12.62L45.83 12.62Q46.76 12.93 47.76 12.18L47.76 12.18L47.76 12.18Q48.77 11.43 48.88 10.84L48.88 10.84L48.67 10.68L48.67 10.68Q47.85 11.85 47.07 11.81L47.07 11.81L47.07 11.81Q46.29 11.76 45.91 11.46L45.91 11.46L45.91 11.46Q45.52 11.15 45.31 10.80L45.31 10.80L47.20 9.54L47.20 9.54Q48.64 8.65 48.50 7.70L48.50 7.70L48.50 7.70Q48.36 6.76 47.29 6.60ZM44.86 8.75L44.86 8.75L44.86 8.75Q44.86 8.12 45.37 7.58L45.37 7.58L45.37 7.58Q45.88 7.04 46.47 7.19L46.47 7.19L46.47 7.19Q47.07 7.34 47.31 8.00L47.31 8.00L47.31 8.00Q47.54 8.67 47.25 9.02L47.25 9.02L47.25 9.02Q46.96 9.37 45.13 10.40L45.13 10.40L45.13 10.40Q44.97 10.04 44.91 9.71L44.91 9.71L44.91 9.71Q44.85 9.37 44.86 8.75ZM50.44 6.46L49.23 7.35L49.34 7.52L49.34 7.52Q49.92 7.06 49.93 8.50L49.93 8.50L49.93 8.50Q49.86 11.46 49.95 11.91L49.95 11.91L49.95 11.91Q50.04 12.37 50.67 12.71L50.67 12.71L51.73 11.87L51.65 11.75L51.65 11.75Q51.11 11.96 51.00 11.08L51.00 11.08L51.00 11.08Q50.90 10.19 50.98 8.11L50.98 8.11L50.98 8.11Q51.99 6.60 52.81 8.12L52.81 8.12L53.68 7.42L53.68 7.42Q53.40 6.74 52.94 6.57L52.94 6.57L52.94 6.57Q52.49 6.39 52.05 6.58L52.05 6.58L52.05 6.58Q51.62 6.76 50.91 7.66L50.91 7.66L50.91 7.66Q50.97 6.82 50.44 6.46L50.44 6.46Z"></path></g><defs data-v-423bf9ae=""><linearGradient data-v-423bf9ae="" gradientTransform="rotate(25)" id="67bbdae7-48e4-4d27-8a1c-cb842991bd61" x1="0%" y1="0%" x2="100%" y2="0%"><stop data-v-423bf9ae="" offset="0%" style="stop-color: rgb(135, 84, 78); stop-opacity: 1;"></stop><stop data-v-423bf9ae="" offset="100%" style="stop-color: rgb(135, 84, 78); stop-opacity: 1;"></stop></linearGradient></defs><g data-v-423bf9ae="" id="ccb6a78c-f007-4b12-bd4b-9322f0eeab26" transform="matrix(1.0921611922107892,0,0,1.0921611922107892,-11.117483821355215,-4.372662477066818)" stroke="none" fill="url(#67bbdae7-48e4-4d27-8a1c-cb842991bd61)"><path d="M78.95 32.293l-.071-.141a.504.504 0 0 0-.224-.219 11.79 11.79 0 0 0-1.375-3.178c-1.126-1.835-2.615-3.307-4.189-4.144a7.312 7.312 0 0 0-.748-.34c.645-.345 1.393-.806 1.93-1.326.023-.023.036-.054.056-.08.031-.036.071-.063.102-.102.692-.912.536-2.333-.444-4.002-.897-1.53-2.4-3.139-4.232-4.53-.53-.403-5.246-3.907-7.315-2.852-.342.175-.74.536-.819 1.283a2.402 2.402 0 0 0-.53.393c-.996-2.303-4.132-4.245-8.175-4.864-.006-.25-.104-.553-.402-.87.089-.187.144-.362.167-.515a1.584 1.584 0 0 0-.429-1.366c-1.334-1.332-6.125-1.593-10.013-1.273-3.086.253-5.965.832-8.109 1.627-2.311.857-3.505 1.885-3.483 2.976-.001.01-.006.017-.006.027-.006.138-.029.922.059 1.731-.513-1-1.273-1.898-2.171-2.199a1.49 1.49 0 0 0-.337-.178c-1.558-.562-4.783 1.033-7.126 2.75-1.848 1.354-3.403 2.888-4.379 4.32-1.384 2.028-1.16 3.154-.729 3.743.029.039.069.066.1.102.015.018.021.04.038.057.106.108.219.229.338.357.729.784 1.811 1.927 3.541 2.328l.006.068c-1.635.133-3.61.99-5.348 2.418-1.71 1.405-2.995 3.133-3.618 4.863-.497 1.382-.53 2.647-.116 3.671.216.599.457 1.141.721 1.638-1.978 4.144-.772 6.182.208 7.82.653 1.092 1.124 1.879.676 3.121-1.713 4.748 2.07 6.523 4.833 7.819 1.194.561 2.322 1.089 2.716 1.699 1.642 2.549 3.584 3.101 5.448 3.401.066.906.184 1.706.319 2.262.178.739.444 1.498 1.067 1.524a.353.353 0 0 0 .033.001c.583 0 .808-.674.882-.898.208-.624.502-1.278.871-1.926.374.309.671.72.913 1.279.356.827 1.364 1.544 2.765 1.963.19.058.392.11.602.155l6.527 9.75-4.362 7.775c-.625 1.183-.762 1.901-.455 2.404.331.541.995.531 1.484.525.132-.002.261-.004.375.007.156.026.527.484.75.758.565.694 1.265 1.558 2.264 1.404.723-.113 1.261.161 1.884.475s1.32.665 2.263.665c.122 0 .247-.006.377-.019.833-.081 1.561-.397 2.205-.678.678-.296 1.264-.551 1.703-.404 1.191.397 2.414-.401 3.221-.931.143-.093.271-.18.391-.251l.134-.078c.754-.444 2.521-1.482 1.48-3.844l-.003-.005-.002-.007-3.181-6.721c2.756.42 3.966 1.082 4.112 3.208.153 2.22 1.613 4.021 2.883 4.311.116.027.229.04.338.04.423 0 .777-.197.985-.561a.527.527 0 1 0-.915-.524c-.008.014-.028.049-.174.017-.649-.148-1.932-1.433-2.065-3.355-.213-3.088-2.476-3.824-5.302-4.223a.515.515 0 0 0-.287-.045l.135-.182c4.867-3.469 5.86-2.248 7.652-.031.545.675 1.162 1.438 1.956 2.137 1.264 1.112 2.271 1.642 3.136 1.642.1 0 .196-.007.292-.021 1.043-.15 1.604-1.045 2.148-1.908.096-.151.191-.303.289-.451a.527.527 0 1 0-.878-.584c-.103.156-.202.315-.303.473-.455.723-.847 1.347-1.406 1.427-.589.09-1.453-.377-2.581-1.368-.727-.64-1.288-1.335-1.832-2.007-1.77-2.188-3.232-3.458-6.749-1.625l6.298-8.464c.066.003.141.014.206.014 2.17 0 3.317-1.6 4.52-3.275.298-.419.61-.852.949-1.281.361.018.723.03 1.081.03.287 0 .572-.007.855-.017 1.44-.055 1.892-.158 1.9-.696.009-.539-.577-.581-.769-.595-.435-.03-.806-.29-1.162-.69a9.44 9.44 0 0 1 .851-.614c1.526-.962 2.716-1.104 3.866-1.242 1.604-.192 3.118-.373 4.736-2.839 1.919-2.922 1.721-4.378 1.576-5.441-.131-.96-.21-1.539 1.542-3.097 3.982-3.54 2.362-6.778 1.059-9.381zm-2.567-2.985c1.454 2.367 1.929 5.126 1.078 6.281-.291.396-1.107.971-2.17.898-1.383-.081-2.732-1.207-3.901-3.255-1.289-2.258-1.296-3.743-.873-4.379.288-.434.756-.477 1.1-.435 1.604.194 3.017 1.93 3.457 3.497.194.698.123 1.144-.029 1.262-.392.309-.599.235-.666.211-.523-.184-.999-1.315-1.172-2.058a.525.525 0 1 0-1.026.234c.054.24.573 2.368 1.846 2.818.375.132.971.174 1.672-.376.559-.44.697-1.284.391-2.375-.523-1.875-2.227-4.004-4.345-4.26-.886-.109-1.654.22-2.105.898-.783 1.18-.479 3.179.836 5.486 1.483 2.6 3.049 3.483 4.237 3.718a1.15 1.15 0 0 1-.464.104h-.026c-1.253 0-3.208-1.706-4.664-4.073-2.04-3.321-2.202-7.087-.353-8.224a2.412 2.412 0 0 1 1.28-.341c.639 0 1.356.203 2.111.604 1.41.751 2.755 2.087 3.786 3.765zM52.386 52.222c-4.417 0-8.008-3.593-8.008-8.007 0-3.11 2.011-5.935 4.678-6.569.391-.093.977-.163 1.658-.163 1.485 0 3.43.333 4.81 1.486 1.209 1.012 1.769 2.502 1.661 4.428-.109 1.983-.875 3.497-2.156 4.261-1.122.673-2.549.724-3.813.134-2.22-1.035-2.728-2.92-2.463-4.34.229-1.228 1.022-2.097 1.974-2.163.747-.048 1.704 0 2.037.533.4.639-.134 1.869-.352 2.25a.526.526 0 1 0 .913.526c.119-.205 1.138-2.044.334-3.333-.489-.785-1.498-1.129-3.005-1.027-1.439.098-2.62 1.312-2.938 3.021-.322 1.724.285 4.196 3.053 5.488 1.582.738 3.375.67 4.802-.183 1.59-.953 2.536-2.766 2.667-5.108.126-2.278-.56-4.06-2.039-5.296a6.295 6.295 0 0 0-1.098-.734c1.026-.046 1.94.219 2.734.794 1.554 1.126 2.557 3.479 2.557 5.994.001 4.415-3.591 8.008-8.006 8.008zm.932 6.2c-.169 1.291-.345 2.623.2 4.024.019.045.03.083.039.113-.701-.002-3.152-1.123-5.788-3.301-2.809-2.321-4.374-4.662-4.231-6.305 1.016-.583 1.896-1.355 2.431-2.35a9.027 9.027 0 0 0 5.324 2.599c2.503 1.578 2.294 3.186 2.025 5.22zm-17.069-5.291l-.005-.002c-2.772-.585-5.013-2.465-5.669-5.008 0-.006-.005-.009-.007-.015.014-.042.032-.082.044-.123a4.705 4.705 0 0 0-.034-2.9c.484-1.88 1.853-3.542 3.758-4.568.61.088 1.232.143 1.873.143 1.666 0 3.24-.32 4.65-.875 1.188.35 2.214.963 2.919 1.739a8.317 8.317 0 0 0-.455 2.692c0 1.367.313 2.659.858 3.823-.853 1.413-2.371 2.207-4.524 2.35-2.139.146-3.778-.418-4.625-1.58-.612-.839-.736-1.95-.333-2.973.844-2.138 2.83-2.743 4.278-2.609 1.138.104 1.999.665 2.142 1.395.113.58.161 1.346-.25 1.697-.584.5-1.949.163-2.381.006a.527.527 0 0 0-.363.989c.229.084 2.271.796 3.428-.19.643-.548.845-1.458.602-2.705-.237-1.212-1.447-2.092-3.079-2.242-1.957-.183-4.364.763-5.355 3.272-.539 1.361-.365 2.85.461 3.983.966 1.323 2.669 2.032 4.842 2.032.229 0 .464-.008.705-.022 2.703-.181 4.198-1.288 5.022-2.366.146.228.301.447.466.661-.817 2.049-3.624 3.247-6.044 3.526a9.055 9.055 0 0 1-2.924-.13zm-10.921-1.649a7.005 7.005 0 0 1-5.384-.361 7.008 7.008 0 0 1-3.55-4.063 7 7 0 0 1 .362-5.382 7.003 7.003 0 0 1 4.062-3.552 6.448 6.448 0 0 1 2.058-.337c1.943 0 3.784.875 4.727 2.384.595.951 1.554 3.61.719 5.761-.501 1.287-1.583 2.168-3.215 2.62-1.676.465-3.149.254-4.142-.592-.87-.741-1.31-1.907-1.173-3.118.237-2.126 1.653-3.074 2.899-3.251 1.072-.154 2.002.254 2.316 1.01.249.598.474 1.396.14 1.805-.405.494-1.562.396-1.935.322a.529.529 0 0 0-.62.414.526.526 0 0 0 .413.62c.21.043 2.078.382 2.956-.687.537-.651.544-1.621.021-2.879-.502-1.208-1.883-1.873-3.439-1.649-1.562.223-3.496 1.451-3.799 4.179-.173 1.558.4 3.069 1.537 4.037 1.267 1.082 3.082 1.367 5.108.807 1.971-.546 3.289-1.642 3.916-3.256a5.69 5.69 0 0 0 .269-.923c.253.769.265 1.53.031 2.281-.501 1.606-2.18 3.101-4.277 3.81zM13.093 34.855c.499.17 1.054.261 1.662.261.346 0 .708-.027 1.083-.084 1.819-.276 3.762-1.203 5.474-2.608 1.356-1.115 2.813-2.705 3.494-4.265.237.727.464 1.51.642 2.323a.49.49 0 0 0 .062.151 6.615 6.615 0 0 0-.107 1.161c0 1.134.27 2.214.744 3.211-.294.674-.968 1.478-1.886 1.868a7.466 7.466 0 0 0-4.619.591c-3.163.054-5.181-.712-6.549-2.609zm6.952-14.104c-.775-.209-1.385-.603-1.893-1.042.688-.049 1.493-.245 2.386-.583a6.871 6.871 0 0 0-.493 1.625zm.992 1.15c-.199-2.623 2.409-5.978 6.346-8.097 3.306-1.778 7.071-2.206 8.57-.976.515.422 1.222 1.569 1.06 2.999-.213 1.879-1.848 3.629-4.727 5.062-2.699 1.342-4.958 1.652-6.045.83-.601-.454-.618-1.127-.526-1.613.451-2.401 3.245-4.041 5.084-4.439.875-.189 1.58-.114 1.796.193.419.598.284.923.24 1.031-.324.78-1.985 1.339-2.956 1.508a.528.528 0 0 0 .179 1.039c.315-.054 3.098-.577 3.749-2.142.184-.441.272-1.155-.349-2.042-.488-.695-1.51-.914-2.883-.618-2.479.536-5.39 2.566-5.898 5.275-.204 1.083.134 2.049.927 2.648.583.44 1.358.659 2.282.659 1.352 0 3.021-.466 4.869-1.385 3.841-1.91 5-4.065 5.267-5.622.239.318.354.669.34 1.062-.066 1.922-3.003 4.489-5.869 6.031-2.641 1.42-5.459 2.069-7.734 1.777-.228-.317-.566-.622-1.077-.864-.338-.942-.992-1.654-1.583-1.979a3.094 3.094 0 0 0-1.062-.337zm10.702-11.556c.464.284 1.075.528 1.819.731a10.086 10.086 0 0 0-1.679.102 5.317 5.317 0 0 1-.14-.833zm11.938 1.171c.02.249.079.519.179.81-.522.979-.604 2.045-.41 2.758.064.233.164.464.292.692-.028.004-.062.006-.09.011-1.663.219-3.122.769-4.233 1.53l.001-.007c.025-.699-.211-1.682-1.37-2.501-.161-1.238-.781-2.269-1.423-2.794a3.52 3.52 0 0 0-.859-.509c1.156.152 2.443.229 3.809.229a40.21 40.21 0 0 0 3.276-.138c.273-.024.551-.054.828-.081zm16.148 27.241c-.359-.5-.79-.951-1.295-1.33.874.204 1.736.304 2.563.304.724 0 1.417-.08 2.067-.23a7.046 7.046 0 0 1-3.335 1.256zm-15.607 1.71a7.121 7.121 0 0 0-2.003-1.309c2.418-1.331 4.137-3.442 4.641-5.889.78.191 1.414.263 2.008.263.253 0 .503-.014.755-.033a11.523 11.523 0 0 0 .211 2.966 7.387 7.387 0 0 0-1.017.155c-1.969.467-3.631 1.933-4.595 3.847zm-14.551 2.862c-.137-1.525-.677-2.928-1.172-3.717-.658-1.054-1.674-1.851-2.86-2.335a5.006 5.006 0 0 0 1.117-1.199c1.311 1.939 3.483 3.432 6.091 4.135-1.308.929-2.313 2.152-2.907 3.53-.086-.139-.17-.278-.269-.414zm7.527-22.128c.074 1.065.608 2.089 1.554 2.977-.495.054-1.017.144-1.573.288a15.68 15.68 0 0 0-4.169-.24c1.499-.81 3.009-1.872 4.188-3.025zm-11.09 7.593a31.36 31.36 0 0 0-.884-2.611c.208.013.42.02.634.02.843 0 1.73-.101 2.636-.292a7.99 7.99 0 0 0-2.386 2.883zm.351 3c0-3.022 2.449-5.774 5.696-6.4.481-.092 1.191-.159 2.015-.159 2.05 0 4.804.417 6.473 1.895 1.079.954 1.569 2.253 1.46 3.86-.118 1.712-.849 3.048-2.114 3.86-1.456.933-3.476 1.091-5.267.414-2.544-.962-3.236-2.69-3.036-3.985.201-1.299 1.234-2.256 2.513-2.327 1.436-.079 2.376.15 2.651.648.334.605-.253 1.679-.485 2.007a.525.525 0 1 0 .858.611c.132-.185 1.262-1.835.551-3.127-.501-.912-1.695-1.301-3.633-1.194-1.781.099-3.219 1.422-3.496 3.218-.264 1.704.571 3.948 3.704 5.133 2.1.793 4.479.598 6.209-.512 1.085-.697 2.418-2.074 2.597-4.675.133-1.951-.476-3.54-1.813-4.722a7.159 7.159 0 0 0-1.848-1.161c1.544-.051 2.878.35 3.963 1.185 1.548 1.191 2.509 3.271 2.509 5.43 0 4.306-4.376 7.809-9.755 7.809-5.377.001-9.752-3.502-9.752-7.808zm24.636-4.023c-.007.009-.016.015-.02.025-.01.02-.017.041-.025.061-.152.29-.271.572-.357.836a15.522 15.522 0 0 0-.979 3.741c-.851.074-1.603.069-2.718-.217.008-.141.026-.28.026-.423a8.31 8.31 0 0 0-1.586-4.88c.771.1 1.562.156 2.367.156 1.447 0 2.837-.17 4.145-.487a5.746 5.746 0 0 0-.853 1.188zm-.193 8.657c-.323-1.395-.313-3.048.004-4.714.754 1.775 2.495 3.529 4.782 4.677a6.931 6.931 0 0 0-2.494.322 10.539 10.539 0 0 0-2.292-.285zm13.581-8.755c.001 0 .001 0 0 0 .001.001.001.002.003.002 1.944 2.001 2.737 4.466 1.8 6.403-1.357 2.803-5.832 3.451-9.98 1.445-2.941-1.424-4.978-3.997-4.736-5.984.017-.139.06-.305.113-.482.104-.256.207-.512.324-.76.363-.676.952-1.394 1.813-1.842a4.18 4.18 0 0 1 1.96-.462c1.094 0 2.325.362 3.681 1.084 2.162 1.152 3.418 2.575 3.444 3.904.015.724-.356 1.345-1.045 1.747-1.73 1.012-4.031.375-5.408-.779-.749-.628-1.125-1.33-.956-1.789.203-.552.476-.865.808-.93.794-.159 1.985.916 2.341 1.303.196.215.529.23.743.034a.526.526 0 0 0 .036-.744c-.18-.198-1.803-1.923-3.321-1.628-.72.14-1.258.679-1.597 1.601-.334.909.141 2.016 1.269 2.961 1.609 1.347 4.367 2.195 6.618.882 1.018-.596 1.59-1.572 1.567-2.678-.033-1.724-1.493-3.479-4.003-4.815-3.196-1.703-5.366-1.281-6.624-.626-.025.014-.052.027-.076.042.174-.425.458-.756.853-1.001 1.418-.876 4.345-.55 7.12.793a11.586 11.586 0 0 1 3.253 2.319zm1.165-.263c.401-.326.935-.748 1.54-1.153-.317.856-.409 1.886-.277 3.006a9.733 9.733 0 0 0-1.263-1.853zm-7.74-4.246l-.167-.028c.448-.692.685-1.436.685-2.187 0-.729-.202-1.452-.567-2.117 1.002-.4 1.824-.924 2.424-1.546-.125 2.001-.571 4.426-2.375 5.878zm-.538-2.215c0 .714-.291 1.407-.857 2.064-1.101-.037-2.136.143-2.958.651-.666.413-1.122 1.018-1.365 1.776-2.438.678-5.418.754-7.951.206h-.004c-.045-.037-.086-.081-.132-.117-.813-.626-2.025-1.248-3.691-1.382-.009-.006-.013-.017-.023-.022-1.389-.907-2.153-2.035-2.153-3.175 0-1.93 2.388-3.7 5.555-4.118 2.262-.298 7.253-.111 9.102 1.68.536.521.762 1.132.688 1.87-.082.819-.498 1.495-1.235 2.01-1.399.975-3.888 1.267-6.055.706-2.292-.593-3.026-1.583-2.948-2.312.078-.718.972-1.513 2.477-1.57 2.38-.09 2.662.415 2.687.473.09.211-.228.703-.495.96a.526.526 0 1 0 .73.761c.119-.114 1.153-1.145.735-2.133-.356-.843-1.531-1.199-3.697-1.116-1.871.072-3.335 1.128-3.485 2.512-.061.566.028 2.487 3.732 3.445 2.063.532 5.005.475 6.922-.861.986-.689 1.568-1.647 1.681-2.77.107-1.064-.23-1.984-1.002-2.733-.438-.425-.999-.769-1.633-1.047 1.596.108 2.941.583 3.925 1.405.922.771 1.45 1.805 1.45 2.837zm-3.927-5.095c-.933-.196-1.957-.257-3.054-.184-.035-.021-.068-.047-.111-.061-1.16-.35-1.784-.893-1.781-1.226.006-.6.245-.75.325-.8.62-.388 2.107.066 2.899.443a.527.527 0 0 0 .455-.952c-.263-.126-2.605-1.204-3.912-.386-.37.23-.813.71-.823 1.686-.004.518.299 1.005.839 1.421a21.854 21.854 0 0 0-3.339-.116l-.006-.012a2.44 2.44 0 0 1-.468-.865c-.148-.545-.072-1.687.75-2.603 1.116-1.24 3.21-1.652 6.06-1.192 3.133.506 4.533 1.621 4.803 2.496.182.595-.14 1.058-.443 1.343-.515.485-1.245.822-2.112.974-.03.008-.055.025-.082.034zm6.925 32.65a9.01 9.01 0 0 0 1.083-4.29c0-1.383-.296-3.035-1.028-4.476.212-.035.417-.078.617-.128.409 1.55 1.301 3.17 2.552 4.606 1.877 2.155 4.13 3.445 6.043 3.655-2.794 1.485-6.896 2.202-9.267.633zm11.392-2.169c-1.519 1.321-4.893.034-7.372-2.81-1.162-1.333-1.98-2.824-2.34-4.233 1.785-.706 3.101-1.974 4.177-3.289.442.24.875.533 1.277.887 1.242 1.089 3.523 3.904 3.429 5.783a1.546 1.546 0 0 1-.686 1.25c-.485.346-1.049.442-1.68.284-1.189-.3-2.518-1.514-3.229-2.952-.61-1.24-.67-2.275-.148-2.637.403-.281 1.219-.172 1.929.582 1.124 1.193 1.015 1.582 1.014 1.584-.032.069-.356.157-.67.136a.528.528 0 0 0-.082 1.05c.135.011 1.314.081 1.703-.73.425-.887-.479-2.002-1.196-2.764-.995-1.056-2.383-1.361-3.299-.726-.376.262-1.503 1.32-.194 3.972.707 1.432 2.192 3.072 3.917 3.505.28.072.559.107.828.107.62 0 1.205-.187 1.72-.552a2.615 2.615 0 0 0 1.126-2.058 3.63 3.63 0 0 0-.053-.771c.441.732.683 1.479.7 2.207.019.883-.299 1.676-.871 2.175zm-1.045-7.681a.482.482 0 0 0-.258.049c-.768-1.116-1.657-2.077-2.26-2.605a7.943 7.943 0 0 0-1.333-.938c.136-.198.265-.402.372-.622.354-.731.498-1.522.477-2.333.261.617.571 1.239.949 1.853 1.027 1.671 2.633 3.547 4.259 4.268-.659.224-1.436.392-2.206.328zm-1.364-14.583h-.015c-1.7.405-3.467 1.796-4.416 2.57a12.556 12.556 0 0 0-3.232-2.237 15.305 15.305 0 0 0-2.533-.958c1.771-1.863 2.119-4.594 2.206-6.601.87 1.314 2.245 2.67 3.6 3.699 1.831 1.392 3.784 2.409 5.499 2.865.311.083.608.143.893.186-.292.142-.525.246-.644.295a3.682 3.682 0 0 0-1.358.181zm-7.833-9.705c.026-.197.217-.626.766-.85a2.07 2.07 0 0 1 .786-.139c.901 0 2.377.443 4.645 2.25 2.619 2.086 3.071 3.414 2.944 3.824-.048.152-.221.24-.515.262-1.424.105-3.438-1.141-4.604-2.364-.643-.674-.821-1.129-.819-1.214.091-.172.166-.18.207-.184.535-.055 1.648.976 2.235 1.69a.527.527 0 0 0 .815-.67c-.303-.368-1.859-2.195-3.157-2.069-.311.031-.74.186-1.032.741-.219.414-.118.945.298 1.582 1.015 1.552 3.912 3.701 6.133 3.541.738-.054 1.267-.419 1.446-1.002.373-1.208-.796-2.97-3.295-4.96-2.513-2.001-4.279-2.524-5.463-2.476l.013-.006c.865-.439 3.587.767 6.198 2.752 1.725 1.31 3.132 2.81 3.961 4.224.727 1.239.92 2.296.513 2.83-.405.534-1.476.632-2.862.264-1.586-.42-3.409-1.375-5.133-2.685-2.679-2.036-4.203-4.357-4.08-5.341zm-1.158.572c-.161 1.251-1.299 2.342-3.12 3.008a5.614 5.614 0 0 0-.646-.644 6.428 6.428 0 0 0-1.432-.891c.456-.21.859-.478 1.197-.795.725-.682.99-1.563.728-2.419-.477-1.548-2.53-2.725-5.642-3.229-3.7-.597-5.678.279-6.723 1.24.016-.278.108-.527.279-.751.903-1.179 4.008-1.717 7.383-1.281 4.65.601 8.303 3.241 7.976 5.762zM34.495 6.785c2.056-.763 4.835-1.319 7.829-1.565 4.685-.385 8.414.203 9.181.968a.526.526 0 0 1 .133.456c-.065.414-.529.868-1.272 1.248-.042.022-.074.055-.108.085-2.094-.017-4.15.329-5.393 1.19h-.002c-.364.035-.743.066-1.142.092-5.2.347-6.567-.456-6.647-.678.004-.031.073-.163.329-.346 2.333-1.676 8.394-1.739 9.199-1.148v.01c-.12.343-2.005.623-4.164.452a.528.528 0 0 0-.082 1.052c.973.076 4.222.242 5.068-.841.234-.301.295-.676.166-1.057-.105-.319-.396-.551-.889-.711-1.813-.587-7.545-.316-9.915 1.387-.873.627-.817 1.239-.707 1.548.425 1.183 2.955 1.47 5.313 1.47.86 0 1.696-.038 2.399-.084l.082-.007c-.02.043-.036.092-.054.138-.354.038-.707.073-1.056.102-2.992.247-5.827.153-7.979-.263-2.226-.431-3.057-1.08-3.093-1.505-.036-.428.677-1.204 2.804-1.993zm-4.47 4.801c-.521.151-1.048.334-1.576.551.537-.744.771-1.376.836-1.897.286.381.545.844.74 1.346zm-12.472 4.232c.911-1.335 2.378-2.779 4.132-4.063 2.726-1.998 5.311-2.909 6.145-2.608a.501.501 0 0 1 .116.065.806.806 0 0 1 .298.552c.071.535-.148 2.049-3.712 4.554-2.905 2.042-4.181 2.05-4.402 1.893-.051-.037-.048-.195.009-.386.598-2.005 4.266-4.269 5.037-4.159.03.036.027.053.025.065-.066.416-1.263 1.235-2.296 1.711a.527.527 0 0 0 .44.958c.632-.29 2.709-1.328 2.896-2.502.062-.384-.075-.753-.383-1.04-.28-.259-.716-.311-1.297-.153-1.712.468-4.816 2.748-5.434 4.819-.28.94.176 1.393.386 1.543.491.354 1.282.328 2.306-.042-.15.192-.292.386-.424.58-2.479 1.208-4.185 1.29-4.59.739-.312-.425-.025-1.392.748-2.526zm-5.55 13.7c.559-1.554 1.729-3.12 3.295-4.407 1.68-1.381 3.678-2.207 5.118-2.207.457 0 .856.083 1.174.257.459.252 1.174 1.037 1.259 2.163.109 1.432-.845 2.965-2.76 4.435-2.666 2.046-4.014 1.659-4.363 1.491-.509-.243-.626-.734-.636-1.103-.039-1.667 1.519-3.357 3.049-4.027.706-.309 1.193-.292 1.345-.144.387.375.339.609.323.687-.13.62-1.364 1.266-1.941 1.482a.53.53 0 0 0-.31.679.53.53 0 0 0 .678.31c.237-.088 2.32-.898 2.604-2.254.085-.402.046-1.017-.621-1.662-.523-.507-1.436-.531-2.501-.064-1.823.798-3.731 2.828-3.679 5.018.021.926.471 1.665 1.233 2.03 1.318.632 3.31.046 5.46-1.606 2.451-1.882 3.113-3.612 3.175-4.859.07.171.142.353.218.545.16 1.298-1.292 3.525-3.483 5.327-1.566 1.288-3.328 2.132-4.962 2.379-1.535.233-2.755-.095-3.436-.922-.679-.827-.763-2.087-.239-3.548zm8.932 24.839c-.559-.866-1.762-1.43-3.155-2.084-2.79-1.31-5.676-2.662-4.289-6.507.618-1.71-.084-2.883-.763-4.019-.882-1.475-1.785-3-.443-6.201 1.305 1.784 3.132 2.701 5.743 2.92a8.066 8.066 0 0 0-2.218 2.74 8.052 8.052 0 0 0-.415 6.189 8.048 8.048 0 0 0 4.081 4.67 8.071 8.071 0 0 0 3.589.846 8.165 8.165 0 0 0 3.025-.587c-.528 1.419-.683 3.265-.645 4.927-1.661-.285-3.156-.791-4.51-2.894zM26.9 60.59c-.324-1.171-.617-3.88-.228-6.303.229-1.426.665-2.444 1.236-2.918.767-.519 1.475-1.173 2.004-1.956.781 1.817 2.285 3.256 4.171 4.106-3.791 1.169-6.18 4.331-7.183 7.071zm3.648-.437c-.328-.759-.767-1.33-1.319-1.754 1.439-2.058 3.726-3.874 6.869-4.23a10.003 10.003 0 0 0 3.194.141 11.943 11.943 0 0 0 3.191-.835c.141 1.839 1.579 3.783 3.322 5.446-1.973.189-4.599.606-6.001 1.526-2.115 1.389-4.484 1.589-6.271 1.281a.516.516 0 0 0-.458-.093 5.506 5.506 0 0 1-.426-.111c-1.278-.383-1.923-.959-2.101-1.371zM44.54 72.961c.361 0 .73-.021 1.101-.053.014.003.027.009.041.009a.593.593 0 0 0 .139-.022 11.414 11.414 0 0 0 2.563-.558l-.001.025c-.003.033-.008.066-.004.102.004.037.015.069.025.104.008.024.007.048.018.072l.108.228c-3.045 1.274-6.518.461-7.948-.283.011-.03.023-.059.027-.091.005-.034.002-.066.001-.101v-.045c1.07.361 2.446.613 3.93.613zm6.633 10.224l-.141.083c-.13.076-.272.171-.428.273-.674.44-1.6 1.046-2.309.811-.82-.276-1.616.072-2.458.438-.6.26-1.218.53-1.883.596-.843.079-1.434-.221-2.065-.54-.687-.346-1.464-.737-2.521-.573-.394.069-.869-.52-1.284-1.03-.457-.561-.888-1.091-1.473-1.143a5.067 5.067 0 0 0-.485-.01c-.178.001-.508.007-.565-.013-.003-.011-.09-.286.477-1.357l4.042-7.204c.425.227.964.444 1.587.626a.503.503 0 0 0-.188.269l-2.072 7.658a.528.528 0 0 0 1.019.275l2.072-7.657a.51.51 0 0 0-.031-.341 12.29 12.29 0 0 0 2.324.261v3.596a.527.527 0 0 0 1.055 0v-3.625a9.875 9.875 0 0 0 3.137-.754l3.244 6.854c.608 1.39-.084 1.936-1.054 2.507zm-1.652-12.491c-.02.008-.04.008-.06.02a9.359 9.359 0 0 1-2.99 1.037l2.385-6.65a.528.528 0 0 0-.992-.357l-2.561 7.136c-.701.044-1.381.022-2.015-.047.001-.037.01-.073.003-.111l-1.565-9.521a.526.526 0 1 0-1.04.169l1.529 9.302c-1.181-.237-2.106-.608-2.557-.929-.021-.016-.045-.019-.069-.03l-5.243-7.831c.216.015.437.024.663.024 1.693 0 3.613-.423 5.374-1.577 1.509-.99 4.937-1.331 6.506-1.439 1.413 1.188 2.888 2.163 3.967 2.747 1.411.764 2.246.971 2.751.971.45 0 .635-.164.729-.249.229-.201.442-.589.166-1.296a4.403 4.403 0 0 1-.285-1.392c.727.164 1.49.347 2.303.564.012.003.022.003.034.007l-7.033 9.452zm12.081-13.149c-1.432 1.998-2.377 3.316-4.813 2.671a61.873 61.873 0 0 0-2.545-.618c.031-.342.074-.687.12-1.038.225-1.705.466-3.603-1.311-5.317a9.052 9.052 0 0 0 2.224-.448c.663 2.453 3.648 3.626 6.88 3.987-.19.257-.375.513-.555.763zm-3.895-3.205c-.803-.533-1.276-1.173-1.443-1.948a9.108 9.108 0 0 0 3.535-2.982c.1.065.206.122.313.181 1.397 1.152 2.265 2.637 3.029 3.946.525.898 1.011 1.729 1.596 2.307-1.985-.008-5.141-.251-7.03-1.504zm19.48-13.451c-2.026 1.803-2.065 2.724-1.887 4.028.135.998.29 2.129-1.412 4.72-1.35 2.055-2.453 2.188-3.979 2.37-1.209.145-2.576.31-4.305 1.397-.314.2-.618.424-.914.66-.206-.323-.416-.68-.638-1.06-.483-.827-1.041-1.782-1.772-2.693.485.078.984.12 1.497.12 3.285 0 6.965-1.506 8.708-3.335l.001-.003c.786-.707 1.223-1.78 1.196-2.956-.035-1.514-.825-3.057-2.236-4.429 1.854-.13 3.489-1.131 3.75-1.299.351-.171.709-.461 1.023-.944.943-.197 1.706-.729 2.091-1.251.304-.412.49-.944.571-1.554.743 1.939.848 3.969-1.694 6.229z"></path></g><!----><g data-v-423bf9ae="" id="bd36db58-d33e-464a-bfa3-b6bfe34aff0b" fill="#000000" transform="matrix(0.6694968618126367,0,0,0.6694968618126367,95.31175212083711,57.56303051271375)"><path d="M2.16 12.38L7.70 12.38L7.70 13.02L1.46 13.02L1.46 3.78L2.16 3.78L2.16 12.38ZM19.59 3.64L19.59 3.64Q20.89 3.64 21.85 4.22L21.85 4.22L21.85 4.22Q22.81 4.80 23.32 5.87L23.32 5.87L23.32 5.87Q23.84 6.94 23.84 8.40L23.84 8.40L23.84 8.40Q23.84 9.86 23.32 10.93L23.32 10.93L23.32 10.93Q22.81 12.00 21.85 12.58L21.85 12.58L21.85 12.58Q20.89 13.16 19.59 13.16L19.59 13.16L19.59 13.16Q18.28 13.16 17.32 12.58L17.32 12.58L17.32 12.58Q16.37 12.00 15.85 10.93L15.85 10.93L15.85 10.93Q15.33 9.86 15.33 8.40L15.33 8.40L15.33 8.40Q15.33 6.94 15.85 5.87L15.85 5.87L15.85 5.87Q16.37 4.80 17.32 4.22L17.32 4.22L17.32 4.22Q18.28 3.64 19.59 3.64L19.59 3.64ZM19.59 4.28L19.59 4.28Q18.51 4.28 17.72 4.78L17.72 4.78L17.72 4.78Q16.93 5.28 16.50 6.21L16.50 6.21L16.50 6.21Q16.07 7.14 16.07 8.40L16.07 8.40L16.07 8.40Q16.07 9.66 16.50 10.59L16.50 10.59L16.50 10.59Q16.93 11.52 17.72 12.02L17.72 12.02L17.72 12.02Q18.51 12.52 19.59 12.52L19.59 12.52L19.59 12.52Q20.66 12.52 21.46 12.02L21.46 12.02L21.46 12.02Q22.26 11.52 22.69 10.59L22.69 10.59L22.69 10.59Q23.11 9.66 23.11 8.40L23.11 8.40L23.11 8.40Q23.11 7.14 22.69 6.21L22.69 6.21L22.69 6.21Q22.26 5.28 21.46 4.78L21.46 4.78L21.46 4.78Q20.66 4.28 19.59 4.28L19.59 4.28ZM40.26 3.78L40.26 13.02L39.40 13.02L34.50 5.77L33.81 4.54L33.80 4.54L33.84 5.70L33.84 13.02L33.17 13.02L33.17 3.78L34.05 3.78L38.93 11.02L39.63 12.26L39.61 11.10L39.61 3.78L40.26 3.78ZM53.73 8.50L57.53 8.50L57.53 13.02L56.97 13.02L56.94 11.41L56.94 11.41Q56.56 12.25 55.75 12.71L55.75 12.71L55.75 12.71Q54.95 13.16 53.76 13.16L53.76 13.16L53.76 13.16Q52.50 13.16 51.55 12.58L51.55 12.58L51.55 12.58Q50.61 12.00 50.10 10.92L50.10 10.92L50.10 10.92Q49.59 9.84 49.59 8.40L49.59 8.40L49.59 8.40Q49.59 6.96 50.11 5.88L50.11 5.88L50.11 5.88Q50.64 4.80 51.59 4.22L51.59 4.22L51.59 4.22Q52.54 3.64 53.80 3.64L53.80 3.64L53.80 3.64Q55.22 3.64 56.11 4.20L56.11 4.20L56.11 4.20Q57.01 4.76 57.46 5.91L57.46 5.91L56.81 6.24L56.81 6.24Q56.49 5.28 55.73 4.78L55.73 4.78L55.73 4.78Q54.96 4.28 53.80 4.28L53.80 4.28L53.80 4.28Q52.77 4.28 51.98 4.78L51.98 4.78L51.98 4.78Q51.20 5.28 50.76 6.21L50.76 6.21L50.76 6.21Q50.33 7.14 50.33 8.40L50.33 8.40L50.33 8.40Q50.33 10.32 51.25 11.42L51.25 11.42L51.25 11.42Q52.16 12.52 53.79 12.52L53.79 12.52L53.79 12.52Q54.80 12.52 55.50 12.12L55.50 12.12L55.50 12.12Q56.20 11.72 56.53 11.07L56.53 11.07L56.53 11.07Q56.87 10.42 56.87 9.67L56.87 9.67L56.87 9.16L53.73 9.16L53.73 8.50ZM67.70 12.38L73.54 12.38L73.54 13.02L67.00 13.02L67.00 3.78L73.32 3.78L73.32 4.42L67.70 4.42L67.70 7.99L72.14 7.99L72.14 8.65L67.70 8.65L67.70 12.38ZM89.52 13.02L88.69 13.02L86.04 9.02L86.00 9.02L83.27 9.02L83.27 13.02L82.57 13.02L82.57 3.78L86.00 3.78L86.00 3.78Q87.39 3.78 88.21 4.48L88.21 4.48L88.21 4.48Q89.03 5.18 89.03 6.40L89.03 6.40L89.03 6.40Q89.03 7.41 88.44 8.07L88.44 8.07L88.44 8.07Q87.85 8.74 86.83 8.93L86.83 8.93L89.52 13.02ZM83.27 4.42L83.27 8.36L85.99 8.36L85.99 8.36Q87.11 8.36 87.70 7.85L87.70 7.85L87.70 7.85Q88.30 7.35 88.30 6.40L88.30 6.40L88.30 6.40Q88.30 5.45 87.70 4.93L87.70 4.93L87.70 4.93Q87.11 4.42 85.99 4.42L85.99 4.42L83.27 4.42ZM109.91 13.02L109.91 3.78L113.18 3.78L113.18 3.78Q114.69 3.78 115.44 4.41L115.44 4.41L115.44 4.41Q116.19 5.04 116.19 6.23L116.19 6.23L116.19 6.23Q116.19 7.04 115.75 7.60L115.75 7.60L115.75 7.60Q115.30 8.16 114.49 8.33L114.49 8.33L114.49 8.34L114.49 8.34Q115.39 8.48 115.91 9.07L115.91 9.07L115.91 9.07Q116.44 9.66 116.44 10.53L116.44 10.53L116.44 10.53Q116.44 11.72 115.59 12.37L115.59 12.37L115.59 12.37Q114.74 13.02 113.18 13.02L113.18 13.02L109.91 13.02ZM110.61 8.04L113.19 8.04L113.19 8.04Q115.44 8.04 115.44 6.23L115.44 6.23L115.44 6.23Q115.44 4.42 113.19 4.42L113.19 4.42L110.61 4.42L110.61 8.04ZM110.61 12.38L113.32 12.38L113.32 12.38Q114.49 12.38 115.09 11.90L115.09 11.90L115.09 11.90Q115.70 11.42 115.70 10.53L115.70 10.53L115.70 10.53Q115.70 9.62 115.09 9.15L115.09 9.15L115.09 9.15Q114.49 8.68 113.32 8.68L113.32 8.68L110.61 8.68L110.61 12.38ZM132.78 3.78L132.78 9.65L132.78 9.65Q132.78 11.35 131.85 12.26L131.85 12.26L131.85 12.26Q130.93 13.16 129.22 13.16L129.22 13.16L129.22 13.16Q127.51 13.16 126.58 12.26L126.58 12.26L126.58 12.26Q125.65 11.35 125.65 9.65L125.65 9.65L125.65 3.78L126.35 3.78L126.35 9.51L126.35 9.51Q126.35 10.99 127.08 11.75L127.08 11.75L127.08 11.75Q127.81 12.52 129.22 12.52L129.22 12.52L129.22 12.52Q130.62 12.52 131.35 11.75L131.35 11.75L131.35 11.75Q132.08 10.99 132.08 9.51L132.08 9.51L132.08 3.78L132.78 3.78ZM148.88 3.78L148.88 4.42L145.50 4.42L145.50 13.02L144.80 13.02L144.80 4.42L141.43 4.42L141.43 3.78L148.88 3.78ZM175.74 3.78L175.74 13.02L174.87 13.02L169.97 5.77L169.29 4.54L169.27 4.54L169.32 5.70L169.32 13.02L168.64 13.02L168.64 3.78L169.53 3.78L174.41 11.02L175.11 12.26L175.08 11.10L175.08 3.78L175.74 3.78ZM189.32 3.64L189.32 3.64Q190.62 3.64 191.58 4.22L191.58 4.22L191.58 4.22Q192.54 4.80 193.06 5.87L193.06 5.87L193.06 5.87Q193.58 6.94 193.58 8.40L193.58 8.40L193.58 8.40Q193.58 9.86 193.06 10.93L193.06 10.93L193.06 10.93Q192.54 12.00 191.58 12.58L191.58 12.58L191.58 12.58Q190.62 13.16 189.32 13.16L189.32 13.16L189.32 13.16Q188.02 13.16 187.06 12.58L187.06 12.58L187.06 12.58Q186.10 12.00 185.58 10.93L185.58 10.93L185.58 10.93Q185.07 9.86 185.07 8.40L185.07 8.40L185.07 8.40Q185.07 6.94 185.58 5.87L185.58 5.87L185.58 5.87Q186.10 4.80 187.06 4.22L187.06 4.22L187.06 4.22Q188.02 3.64 189.32 3.64L189.32 3.64ZM189.32 4.28L189.32 4.28Q188.24 4.28 187.45 4.78L187.45 4.78L187.45 4.78Q186.66 5.28 186.24 6.21L186.24 6.21L186.24 6.21Q185.81 7.14 185.81 8.40L185.81 8.40L185.81 8.40Q185.81 9.66 186.24 10.59L186.24 10.59L186.24 10.59Q186.66 11.52 187.45 12.02L187.45 12.02L187.45 12.02Q188.24 12.52 189.32 12.52L189.32 12.52L189.32 12.52Q190.40 12.52 191.20 12.02L191.20 12.02L191.20 12.02Q192.00 11.52 192.42 10.59L192.42 10.59L192.42 10.59Q192.85 9.66 192.85 8.40L192.85 8.40L192.85 8.40Q192.85 7.14 192.42 6.21L192.42 6.21L192.42 6.21Q192.00 5.28 191.20 4.78L191.20 4.78L191.20 4.78Q190.40 4.28 189.32 4.28L189.32 4.28ZM208.71 3.78L208.71 4.42L205.34 4.42L205.34 13.02L204.64 13.02L204.64 4.42L201.26 4.42L201.26 3.78L208.71 3.78ZM234.78 4.42L229.18 4.42L229.18 7.99L233.62 7.99L233.62 8.65L229.18 8.65L229.18 13.02L228.48 13.02L228.48 3.78L234.78 3.78L234.78 4.42ZM247.09 3.64L247.09 3.64Q248.39 3.64 249.35 4.22L249.35 4.22L249.35 4.22Q250.31 4.80 250.82 5.87L250.82 5.87L250.82 5.87Q251.34 6.94 251.34 8.40L251.34 8.40L251.34 8.40Q251.34 9.86 250.82 10.93L250.82 10.93L250.82 10.93Q250.31 12.00 249.35 12.58L249.35 12.58L249.35 12.58Q248.39 13.16 247.09 13.16L247.09 13.16L247.09 13.16Q245.78 13.16 244.82 12.58L244.82 12.58L244.82 12.58Q243.87 12.00 243.35 10.93L243.35 10.93L243.35 10.93Q242.83 9.86 242.83 8.40L242.83 8.40L242.83 8.40Q242.83 6.94 243.35 5.87L243.35 5.87L243.35 5.87Q243.87 4.80 244.82 4.22L244.82 4.22L244.82 4.22Q245.78 3.64 247.09 3.64L247.09 3.64ZM247.09 4.28L247.09 4.28Q246.01 4.28 245.22 4.78L245.22 4.78L245.22 4.78Q244.43 5.28 244.00 6.21L244.00 6.21L244.00 6.21Q243.57 7.14 243.57 8.40L243.57 8.40L243.57 8.40Q243.57 9.66 244.00 10.59L244.00 10.59L244.00 10.59Q244.43 11.52 245.22 12.02L245.22 12.02L245.22 12.02Q246.01 12.52 247.09 12.52L247.09 12.52L247.09 12.52Q248.16 12.52 248.96 12.02L248.96 12.02L248.96 12.02Q249.76 11.52 250.19 10.59L250.19 10.59L250.19 10.59Q250.61 9.66 250.61 8.40L250.61 8.40L250.61 8.40Q250.61 7.14 250.19 6.21L250.19 6.21L250.19 6.21Q249.76 5.28 248.96 4.78L248.96 4.78L248.96 4.78Q248.16 4.28 247.09 4.28L247.09 4.28ZM267.61 13.02L266.78 13.02L264.14 9.02L264.10 9.02L261.37 9.02L261.37 13.02L260.67 13.02L260.67 3.78L264.10 3.78L264.10 3.78Q265.48 3.78 266.30 4.48L266.30 4.48L266.30 4.48Q267.12 5.18 267.12 6.40L267.12 6.40L267.12 6.40Q267.12 7.41 266.53 8.07L266.53 8.07L266.53 8.07Q265.94 8.74 264.92 8.93L264.92 8.93L267.61 13.02ZM261.37 4.42L261.37 8.36L264.08 8.36L264.08 8.36Q265.20 8.36 265.80 7.85L265.80 7.85L265.80 7.85Q266.39 7.35 266.39 6.40L266.39 6.40L266.39 6.40Q266.39 5.45 265.80 4.93L265.80 4.93L265.80 4.93Q265.20 4.42 264.08 4.42L264.08 4.42L261.37 4.42ZM277.33 12.38L283.16 12.38L283.16 13.02L276.63 13.02L276.63 3.78L282.94 3.78L282.94 4.42L277.33 4.42L277.33 7.99L281.76 7.99L281.76 8.65L277.33 8.65L277.33 12.38ZM299.01 3.78L295.46 13.02L294.63 13.02L291.06 3.78L291.82 3.78L294.55 10.93L295.04 12.36L295.53 10.93L298.27 3.78L299.01 3.78ZM308.49 12.38L314.33 12.38L314.33 13.02L307.79 13.02L307.79 3.78L314.10 3.78L314.10 4.42L308.49 4.42L308.49 7.99L312.93 7.99L312.93 8.65L308.49 8.65L308.49 12.38ZM330.30 13.02L329.48 13.02L326.83 9.02L326.79 9.02L324.06 9.02L324.06 13.02L323.36 13.02L323.36 3.78L326.79 3.78L326.79 3.78Q328.17 3.78 328.99 4.48L328.99 4.48L328.99 4.48Q329.81 5.18 329.81 6.40L329.81 6.40L329.81 6.40Q329.81 7.41 329.22 8.07L329.22 8.07L329.22 8.07Q328.64 8.74 327.61 8.93L327.61 8.93L330.30 13.02ZM324.06 4.42L324.06 8.36L326.77 8.36L326.77 8.36Q327.89 8.36 328.49 7.85L328.49 7.85L328.49 7.85Q329.08 7.35 329.08 6.40L329.08 6.40L329.08 6.40Q329.08 5.45 328.49 4.93L328.49 4.93L328.49 4.93Q327.89 4.42 326.77 4.42L326.77 4.42L324.06 4.42Z"></path></g></svg>